<?xml version="1.0" encoding="UTF-8" standalone="no"?>
<!-- Created with Inkscape (http://www.inkscape.org/) -->

<svg
   version="1.1"
   id="svg4103"
   width="800"
   height="800"
   viewBox="0 0 800 800"
   sodipodi:docname="suburban-forest-publicdomainvectors.org.svg"
   inkscape:version="1.2 (dc2aedaf03, 2022-05-15)"
   xmlns:inkscape="http://www.inkscape.org/namespaces/inkscape"
   xmlns:sodipodi="http://sodipodi.sourceforge.net/DTD/sodipodi-0.dtd"
   xmlns="http://www.w3.org/2000/svg"
   xmlns:svg="http://www.w3.org/2000/svg">
  <defs
     id="defs4107">
    <clipPath
       clipPathUnits="userSpaceOnUse"
       id="clipPath4129">
      <path
         d="M 0,600 H 600 V 0 H 0 Z"
         id="path4127" />
    </clipPath>
  </defs>
  <sodipodi:namedview
     id="namedview4105"
     pagecolor="#ffffff"
     bordercolor="#000000"
     borderopacity="0.25"
     inkscape:showpageshadow="2"
     inkscape:pageopacity="0.0"
     inkscape:pagecheckerboard="0"
     inkscape:deskcolor="#d1d1d1"
     showgrid="false"
     inkscape:zoom="1.04625"
     inkscape:cx="399.5221"
     inkscape:cy="400.4779"
     inkscape:window-width="1920"
     inkscape:window-height="1017"
     inkscape:window-x="-8"
     inkscape:window-y="-8"
     inkscape:window-maximized="1"
     inkscape:current-layer="g4111">
    <inkscape:page
       x="0"
       y="0"
       id="page4109"
       width="800"
       height="800" />
  </sodipodi:namedview>
  <g
     id="g4111"
     inkscape:groupmode="layer"
     inkscape:label="Page 1"
     transform="matrix(1.3333333,0,0,-1.3333333,0,800)">
    <path
       d="M 0,0.423 H 598.574 V 599 H 0 Z"
       style="fill:#c1dff5;fill-opacity:1;fill-rule:nonzero;stroke:none"
       id="path4113" />
    <g
       id="g4115"
       transform="translate(452.6865,391.257)">
      <path
         d="M 0,0 V -39.291 H -25.671 V -69.142 H -46.03 v -13.446 h -9.168 v -45.655 h -30.898 v 15.053 45.155 57.799 h -37.33 v -57.799 h -9.633 v 13.967 h -13.247 v 24.004 h -23.577 v -24.004 h -16.372 v -31.427 h -34.809 v 28.899 20.471 h -45.053 v -20.471 h -12.042 v -37.93 h -19.266 v 32.512 h -15.654 v 16.256 h -27.695 v -16.256 h -11.893 v -32.239 h -27.242 v 31.084 h -48.095 v -21.723 h -24.682 v -137.496 h 24.682 v -35.372 h 117.935 v 45.83 h 12.644 v 10.766 h 19.266 23.482 19.266 v -56.596 h 90.913 v 12.112 h 58.402 v 0.604 h 85.494 v 6.62 h 43.351 v 13.849 h 69.84 v 12.042 h 33.298 V -33.115 H 110.182 V -61.411 H 93.324 v -52.984 H 42.749 v 75.104 H 27.093 l 0,39.291 z"
         style="fill:#9bc0e8;fill-opacity:1;fill-rule:nonzero;stroke:none"
         id="path4117" />
    </g>
    <g
       id="g4119"
       transform="translate(217.2753,293.58)">
      <path
         d="m 0,0 v -56.596 h -19.266 -23.481 -19.267 v 10.767 H -74.658 V 0 h -117.935 v -35.37 h -24.682 v -137.497 h 24.682 v -21.724 h 48.095 v 31.083 h 27.242 v -32.237 h 11.893 v -16.257 h 27.695 v 16.257 h 15.654 v 32.511 h 19.267 v -37.93 h 12.042 v -20.471 h 45.052 v 20.471 28.899 h 34.809 v -31.426 h 16.372 v -24.004 h 23.577 v 24.004 h 13.248 v 13.967 h 9.632 v -57.8 h 37.33 v 57.8 45.156 15.052 h 30.898 v -45.655 h 9.168 v -13.446 h 20.36 v -29.851 h 25.67 v -39.292 h 27.093 v 39.292 h 15.656 v 75.103 h 50.575 v -52.983 h 16.859 v -28.297 h 35.704 V -45.228 H 348 v 12.042 h -69.84 v 13.85 h -43.351 v 6.621 h -85.494 v 0.603 H 90.913 l 0,12.112 z"
         style="fill:#749fd5;fill-opacity:1;fill-rule:nonzero;stroke:none"
         id="path4121" />
    </g>
    <g
       id="g4123">
      <g
         id="g4125"
         clip-path="url(#clipPath4129)">
        <g
           id="g4131"
           transform="translate(34.9199,176.4697)">
          <path
             d="M 0,0 C 11.73,0 21.297,9.568 21.297,21.296 21.297,33.027 11.73,42.594 0,42.594 -11.729,42.594 -21.297,33.027 -21.297,21.296 -21.297,9.568 -11.729,0 0,0"
             style="fill:#9ac421;fill-opacity:1;fill-rule:evenodd;stroke:none"
             id="path4133" />
        </g>
        <g
           id="g4135"
           transform="translate(66.3047,176.3164)">
          <path
             d="M 0,0 C 14.094,0 25.588,11.493 25.588,25.589 25.588,39.68 14.094,51.177 0,51.177 -14.093,51.177 -25.588,39.68 -25.588,25.589 -25.588,11.493 -14.093,0 0,0"
             style="fill:#9ac421;fill-opacity:1;fill-rule:evenodd;stroke:none"
             id="path4137" />
        </g>
        <g
           id="g4139"
           transform="translate(107.1689,159.9063)">
          <path
             d="M 0,0 C 11.815,0 21.451,9.637 21.451,21.451 21.451,33.266 11.815,42.9 0,42.9 -11.815,42.9 -21.451,33.266 -21.451,21.451 -21.451,9.637 -11.815,0 0,0"
             style="fill:#9ac421;fill-opacity:1;fill-rule:evenodd;stroke:none"
             id="path4141" />
        </g>
        <g
           id="g4143"
           transform="translate(128.9199,179.3271)">
          <path
             d="M 0,0 C 10.446,0 18.965,8.518 18.965,18.964 18.965,29.41 10.446,37.932 0,37.932 -10.446,37.932 -18.966,29.41 -18.966,18.964 -18.966,8.518 -10.446,0 0,0"
             style="fill:#9ac421;fill-opacity:1;fill-rule:evenodd;stroke:none"
             id="path4145" />
        </g>
        <g
           id="g4147"
           transform="translate(169.8618,184.7441)">
          <path
             d="m 0,0 c 8.124,0 14.75,6.628 14.75,14.752 0,8.124 -6.626,14.75 -14.75,14.75 -8.124,0 -14.751,-6.626 -14.751,-14.75 C -14.751,6.628 -8.124,0 0,0"
             style="fill:#9ac421;fill-opacity:1;fill-rule:evenodd;stroke:none"
             id="path4149" />
        </g>
        <g
           id="g4151"
           transform="translate(247.9141,190.0947)">
          <path
             d="M 0,0 C 8.972,0 16.29,7.318 16.29,16.29 16.29,25.263 8.972,32.581 0,32.581 -8.973,32.581 -16.292,25.263 -16.292,16.29 -16.292,7.318 -8.973,0 0,0"
             style="fill:#9ac421;fill-opacity:1;fill-rule:evenodd;stroke:none"
             id="path4153" />
        </g>
        <g
           id="g4155"
           transform="translate(300.2114,170.8955)">
          <path
             d="m 0,0 c 12.931,0 23.479,10.55 23.479,23.483 0,12.932 -10.548,23.48 -23.479,23.48 -12.933,0 -23.481,-10.548 -23.481,-23.48 C -23.481,10.55 -12.933,0 0,0"
             style="fill:#9ac421;fill-opacity:1;fill-rule:evenodd;stroke:none"
             id="path4157" />
        </g>
        <g
           id="g4159"
           transform="translate(333.627,183.541)">
          <path
             d="m 0,0 c 10.775,0 19.568,8.79 19.568,19.567 0,10.778 -8.793,19.568 -19.568,19.568 -10.779,0 -19.567,-8.79 -19.567,-19.568 C -19.567,8.79 -10.779,0 0,0"
             style="fill:#9ac421;fill-opacity:1;fill-rule:evenodd;stroke:none"
             id="path4161" />
        </g>
        <g
           id="g4163"
           transform="translate(431.1631,184.1426)">
          <path
             d="m 0,0 c 8.786,0 15.955,7.167 15.955,15.955 0,8.788 -7.169,15.953 -15.955,15.953 -8.788,0 -15.956,-7.165 -15.956,-15.953 C -15.956,7.167 -8.788,0 0,0"
             style="fill:#9ac421;fill-opacity:1;fill-rule:evenodd;stroke:none"
             id="path4165" />
        </g>
        <g
           id="g4167"
           transform="translate(477.749,181.2832)">
          <path
             d="m 0,0 c 8.911,0 16.181,7.267 16.181,16.181 0,8.911 -7.27,16.18 -16.181,16.18 -8.913,0 -16.183,-7.269 -16.183,-16.18 C -16.183,7.267 -8.913,0 0,0"
             style="fill:#9ac421;fill-opacity:1;fill-rule:evenodd;stroke:none"
             id="path4169" />
        </g>
        <g
           id="g4171"
           transform="translate(541.8682,182.1885)">
          <path
             d="m 0,0 c 10.156,0 18.438,8.282 18.438,18.437 0,10.156 -8.282,18.438 -18.438,18.438 -10.153,0 -18.437,-8.282 -18.437,-18.438 C -18.437,8.282 -10.153,0 0,0"
             style="fill:#9ac421;fill-opacity:1;fill-rule:evenodd;stroke:none"
             id="path4173" />
        </g>
        <g
           id="g4175"
           transform="translate(447.418,188.3584)">
          <path
             d="m 0,0 c 8.539,0 15.505,6.963 15.505,15.502 0,8.54 -6.966,15.503 -15.505,15.503 -8.539,0 -15.503,-6.963 -15.503,-15.503 C -15.503,6.963 -8.539,0 0,0"
             style="fill:#9ac421;fill-opacity:1;fill-rule:evenodd;stroke:none"
             id="path4177" />
        </g>
        <path
           d="m 0,120.252 h 598.574 v 69.843 H 0 Z"
           style="fill:#87b027;fill-opacity:1;fill-rule:evenodd;stroke:none"
           id="path4179" />
        <path
           d="M 0,0.423 H 598.574 V 133.497 H 0 Z"
           style="fill:#45473d;fill-opacity:1;fill-rule:evenodd;stroke:none"
           id="path4181" />
        <path
           d="m 0,190.095 h 598.574 v 8.428 H 0 Z"
           style="fill:#9ac421;fill-opacity:1;fill-rule:evenodd;stroke:none"
           id="path4183" />
        <path
           d="M 56.216,168.869 H 98.361 V 527.705 H 56.216 Z"
           style="fill:#7e2b1a;fill-opacity:1;fill-rule:evenodd;stroke:none"
           id="path4185" />
        <path
           d="M 85.717,168.869 H 98.361 V 527.705 H 85.717 Z"
           style="fill:#632615;fill-opacity:1;fill-rule:evenodd;stroke:none"
           id="path4187" />
        <path
           d="m 97.458,168.869 h 2.561 v 358.836 h -2.561 z"
           style="fill:#c1673d;fill-opacity:1;fill-rule:evenodd;stroke:none"
           id="path4189" />
        <path
           d="m 202.121,527.705 h 42.145 V 168.869 h -42.145 z"
           style="fill:#7e2b1a;fill-opacity:1;fill-rule:evenodd;stroke:none"
           id="path4191" />
        <path
           d="m 231.623,527.705 h 12.643 V 168.869 h -12.643 z"
           style="fill:#632615;fill-opacity:1;fill-rule:evenodd;stroke:none"
           id="path4193" />
        <path
           d="m 243.362,527.705 h 2.561 V 168.869 h -2.561 z"
           style="fill:#c1673d;fill-opacity:1;fill-rule:evenodd;stroke:none"
           id="path4195" />
        <path
           d="M 348.024,527.705 H 390.17 V 168.869 h -42.146 z"
           style="fill:#7e2b1a;fill-opacity:1;fill-rule:evenodd;stroke:none"
           id="path4197" />
        <path
           d="m 377.526,527.705 h 12.643 V 168.869 h -12.643 z"
           style="fill:#632615;fill-opacity:1;fill-rule:evenodd;stroke:none"
           id="path4199" />
        <path
           d="m 389.269,527.705 h 2.56 V 168.869 h -2.56 z"
           style="fill:#c1673d;fill-opacity:1;fill-rule:evenodd;stroke:none"
           id="path4201" />
        <path
           d="m 493.93,168.869 h 42.146 V 527.705 H 493.93 Z"
           style="fill:#7e2b1a;fill-opacity:1;fill-rule:evenodd;stroke:none"
           id="path4203" />
        <g
           id="g4205"
           transform="translate(421.8145,377.2729)">
          <path
             d="m 0,0 15.33,-10.456 -60.976,-89.408 -15.331,10.456 z"
             style="fill:#7e2b1a;fill-opacity:1;fill-rule:evenodd;stroke:none"
             id="path4207" />
        </g>
        <g
           id="g4209"
           transform="translate(432.6758,369.8647)">
          <path
             d="m 0,0 4.469,-3.048 -60.976,-89.408 -4.469,3.048 z"
             style="fill:#632615;fill-opacity:1;fill-rule:evenodd;stroke:none"
             id="path4211" />
        </g>
        <path
           d="m 523.432,168.869 h 12.644 v 358.836 h -12.644 z"
           style="fill:#632615;fill-opacity:1;fill-rule:evenodd;stroke:none"
           id="path4213" />
        <path
           d="m 535.172,168.869 h 2.562 v 358.836 h -2.562 z"
           style="fill:#c1673d;fill-opacity:1;fill-rule:evenodd;stroke:none"
           id="path4215" />
        <g
           id="g4217"
           transform="translate(582.5361,478.2754)">
          <path
             d="m 0,0 15.33,-10.455 -60.976,-89.408 -15.33,10.456 z"
             style="fill:#7e2b1a;fill-opacity:1;fill-rule:evenodd;stroke:none"
             id="path4219" />
        </g>
        <g
           id="g4221"
           transform="translate(593.3994,470.8672)">
          <path
             d="m 0,0 4.467,-3.047 -60.976,-89.408 -4.468,3.048 z"
             style="fill:#632615;fill-opacity:1;fill-rule:evenodd;stroke:none"
             id="path4223" />
        </g>
        <g
           id="g4225"
           transform="translate(283.4507,476.1094)">
          <path
             d="m 0,0 15.33,-10.455 -60.978,-89.407 -15.329,10.455 z"
             style="fill:#7e2b1a;fill-opacity:1;fill-rule:evenodd;stroke:none"
             id="path4227" />
        </g>
        <g
           id="g4229"
           transform="translate(294.312,468.7012)">
          <path
             d="m 0,0 4.469,-3.046 -60.978,-89.408 -4.468,3.047 z"
             style="fill:#632615;fill-opacity:1;fill-rule:evenodd;stroke:none"
             id="path4231" />
        </g>
        <g
           id="g4233"
           transform="translate(282.8467,384.5942)">
          <path
             d="m 0,0 15.331,-10.455 -60.976,-89.408 -15.331,10.456 z"
             style="fill:#7e2b1a;fill-opacity:1;fill-rule:evenodd;stroke:none"
             id="path4235" />
        </g>
        <g
           id="g4237"
           transform="translate(293.7085,377.1865)">
          <path
             d="m 0,0 4.469,-3.047 -60.976,-89.408 -4.468,3.048 z"
             style="fill:#632615;fill-opacity:1;fill-rule:evenodd;stroke:none"
             id="path4239" />
        </g>
        <g
           id="g4241"
           transform="translate(17.2773,371.8784)">
          <path
             d="m 0,0 -15.329,-10.455 60.975,-89.408 15.331,10.456 z"
             style="fill:#7e2b1a;fill-opacity:1;fill-rule:evenodd;stroke:none"
             id="path4243" />
        </g>
        <g
           id="g4245"
           transform="translate(6.4155,364.4697)">
          <path
             d="m 0,0 -4.467,-3.046 60.975,-89.408 4.469,3.048 z"
             style="fill:#632615;fill-opacity:1;fill-rule:evenodd;stroke:none"
             id="path4247" />
        </g>
        <g
           id="g4249"
           transform="translate(151.5073,491.8042)">
          <path
             d="m 0,0 18.941,-12.919 -75.338,-110.465 -18.941,12.919 z"
             style="fill:#7e2b1a;fill-opacity:1;fill-rule:evenodd;stroke:none"
             id="path4251" />
        </g>
        <g
           id="g4253"
           transform="translate(164.9277,482.6509)">
          <path
             d="m 0,0 5.521,-3.765 -75.339,-110.466 -5.521,3.765 z"
             style="fill:#632615;fill-opacity:1;fill-rule:evenodd;stroke:none"
             id="path4255" />
        </g>
        <g
           id="g4257"
           transform="translate(518.6064,455.6074)">
          <path
             d="m 0,0 c -11.307,0 -20.471,-9.165 -20.471,-20.471 0,-9.331 6.242,-17.202 14.78,-19.668 -1.378,-3.41 -2.136,-7.134 -2.136,-11.037 0,-16.294 13.209,-29.503 29.502,-29.503 16.292,0 29.502,13.209 29.502,29.503 0,16.292 -13.21,29.501 -29.502,29.501 -0.418,0 -0.831,-0.011 -1.243,-0.028 0.023,0.408 0.038,0.818 0.038,1.232 C 20.47,-9.165 11.305,0 0,0 m -148.111,-40.942 c 7.206,0 13.767,-2.754 18.694,-7.263 5.857,4.908 13.406,7.866 21.646,7.866 18.621,0 33.715,-15.096 33.715,-33.716 0,-18.621 -15.094,-33.716 -33.715,-33.716 -11.474,0 -21.606,5.733 -27.698,14.487 -3.79,-1.947 -8.086,-3.048 -12.642,-3.048 -15.295,0 -27.696,12.399 -27.696,27.695 0,15.296 12.401,27.695 27.696,27.695 m -121.619,3.613 c 4.578,0 8.841,-1.345 12.416,-3.661 4.776,2.713 10.297,4.264 16.183,4.264 1.532,0 3.039,-0.108 4.515,-0.312 3.984,7.016 11.524,11.75 20.169,11.75 12.802,0 23.181,-10.378 23.181,-23.18 0,-9.944 -6.263,-18.425 -15.061,-21.716 -0.343,-17.824 -14.897,-32.169 -32.804,-32.169 -13.306,0 -24.764,7.921 -29.913,19.305 -12.024,0.681 -21.565,10.646 -21.565,22.841 0,12.635 10.244,22.878 22.879,22.878 m -95.73,-7.225 c 0.157,0 0.314,-0.004 0.472,-0.006 4.779,6.914 12.761,11.446 21.805,11.446 14.63,0 26.49,-11.861 26.49,-26.491 0,-14.043 -10.927,-25.532 -24.743,-26.432 -4.78,-8.311 -13.749,-13.907 -24.024,-13.907 -15.296,0 -27.695,12.399 -27.695,27.695 0,15.295 12.399,27.695 27.695,27.695 m -153.146,-52.235 v 28.006 c 5.487,13.166 18.479,22.423 33.634,22.423 6.398,0 12.41,-1.652 17.635,-4.549 3.766,10.043 13.453,17.192 24.811,17.192 14.63,0 26.491,-11.86 26.491,-26.49 0,-14.631 -11.861,-26.491 -26.491,-26.491 -2.121,0 -4.184,0.251 -6.161,0.721 -1.618,-18.622 -17.243,-33.235 -36.285,-33.235 -15.155,0 -28.147,9.257 -33.634,22.423 m 0,240.182 H 79.968 V 12.771 C 70.641,5.165 58.732,0.602 45.758,0.602 c -29.566,0 -53.597,23.678 -54.173,53.105 -5.627,-2.403 -11.822,-3.734 -18.329,-3.734 -3.279,0 -6.478,0.339 -9.567,0.982 -1.928,-20.148 -18.899,-35.903 -39.551,-35.903 -2.284,0 -4.522,0.195 -6.699,0.565 -5.749,-19.804 -24.023,-34.281 -45.681,-34.281 -14.637,0 -27.727,6.614 -36.452,17.012 -5.01,-1.662 -10.365,-2.563 -15.93,-2.563 -12.32,0 -23.609,4.407 -32.381,11.727 -8.485,-9.417 -20.775,-15.339 -34.449,-15.339 -9.394,0 -18.131,2.797 -25.435,7.598 -7.838,-9.078 -19.43,-14.823 -32.365,-14.823 -15.62,0 -29.282,8.381 -36.74,20.888 -4.865,-1.824 -10.135,-2.826 -15.64,-2.826 -6.883,0 -13.4,1.562 -19.218,4.349 -9.508,-18.322 -28.649,-30.84 -50.716,-30.84 -15.422,0 -29.413,6.115 -39.689,16.051 -10.53,-6.366 -22.876,-10.03 -36.079,-10.03 -5.245,0 -10.355,0.583 -15.27,1.679 z"
             style="fill:#87b027;fill-opacity:1;fill-rule:evenodd;stroke:none"
             id="path4259" />
        </g>
        <g
           id="g4261"
           transform="translate(248.2744,567.5938)">
          <path
             d="m 0,0 c 16.957,0 30.704,-13.748 30.704,-30.706 0,-14.532 -10.094,-26.705 -23.652,-29.892 0.114,-1.058 0.172,-2.133 0.172,-3.222 0,-16.626 -13.478,-30.103 -30.103,-30.103 -16.626,0 -30.104,13.477 -30.104,30.103 0,0.793 0.03,1.579 0.091,2.356 -11.635,4.164 -19.959,15.283 -19.959,28.35 0,16.626 13.477,30.103 30.103,30.103 7.549,0 14.45,-2.78 19.733,-7.369 C -17.389,-4.016 -9.164,0 0,0 m 129.145,21.072 c 22.777,0 41.242,-18.464 41.242,-41.242 0,-3.99 -0.572,-7.849 -1.627,-11.499 2.514,-5.244 3.926,-11.12 3.926,-17.325 0,-22.154 -17.961,-40.113 -40.116,-40.113 -16.208,0 -30.17,9.614 -36.497,23.452 -4.913,-3.034 -10.703,-4.788 -16.901,-4.788 -17.788,0 -32.211,14.422 -32.211,32.21 0,17.791 14.423,32.211 32.211,32.211 3.72,0 7.29,-0.631 10.614,-1.79 5.253,16.739 20.887,28.884 39.359,28.884 M 211.328,4.214 c 14.298,0 25.888,-11.591 25.888,-25.889 0,-14.298 -11.59,-25.89 -25.888,-25.89 -14.299,0 -25.889,11.592 -25.889,25.89 0,14.298 11.59,25.889 25.889,25.889 m 77.029,-141.713 c 9.665,0 17.498,-7.835 17.498,-17.498 0,-9.664 -7.833,-17.498 -17.498,-17.498 -9.664,0 -17.498,7.834 -17.498,17.498 0,2.299 0.444,4.494 1.251,6.505 -0.412,-0.046 -0.827,-0.071 -1.251,-0.071 -6.11,0 -11.063,4.954 -11.063,11.064 0,6.11 4.953,11.063 11.063,11.063 6.11,0 11.064,-4.953 11.064,-11.063 0,-0.422 -0.026,-0.839 -0.07,-1.25 2.01,0.806 4.206,1.25 6.504,1.25 M 144.498,-173.85 c 8.812,0 15.954,-7.143 15.954,-15.955 0,-8.811 -7.142,-15.955 -15.954,-15.955 -7.817,0 -14.32,5.621 -15.69,13.042 -0.506,-0.063 -1.022,-0.097 -1.545,-0.097 -6.776,0 -12.267,5.493 -12.267,12.267 0,6.775 5.491,12.267 12.267,12.267 4.823,0 8.996,-2.784 10.999,-6.832 1.917,0.813 4.021,1.263 6.236,1.263 m -98.664,22.879 c 6.691,0 12.116,-5.426 12.116,-12.117 0,-6.26 -4.745,-11.411 -10.834,-12.05 0.098,-0.787 0.149,-1.587 0.149,-2.4 0,-10.599 -8.593,-19.191 -19.191,-19.191 -9.159,0 -16.816,6.415 -18.731,14.996 -3.977,0.946 -6.932,4.52 -6.932,8.786 0,4.987 4.041,9.03 9.031,9.03 0.943,0 1.854,-0.145 2.708,-0.413 3.497,3.685 8.442,5.984 13.924,5.984 2.177,0 4.272,-0.364 6.222,-1.033 1.566,4.877 6.14,8.408 11.538,8.408 m -113.04,-4.817 c 6.359,0 11.514,-5.155 11.514,-11.514 0,-6.359 -5.155,-11.515 -11.514,-11.515 -0.342,0 -0.681,0.016 -1.016,0.045 -1.568,-4.495 -5.844,-7.721 -10.875,-7.721 -6.359,0 -11.514,5.155 -11.514,11.514 0,6.359 5.155,11.514 11.514,11.514 0.343,0 0.682,-0.016 1.016,-0.045 1.568,4.496 5.845,7.722 10.875,7.722 m -140.058,-16.406 c 2.628,0 5.154,-0.442 7.506,-1.252 2.768,4.879 8.01,8.174 14.02,8.174 8.895,0 16.106,-7.21 16.106,-16.104 0,-8.424 -6.468,-15.336 -14.707,-16.045 -1.106,-11.687 -10.947,-20.832 -22.925,-20.832 -12.718,0 -23.029,10.311 -23.029,23.029 0,12.719 10.311,23.03 23.029,23.03 m -41.01,70.794 v 47.464 c 5.3,4.357 12.087,6.974 19.485,6.974 2.923,0 5.751,-0.409 8.429,-1.172 0.018,17.609 14.298,31.878 31.91,31.878 4.73,0 9.218,-1.031 13.255,-2.876 3.18,17.39 18.409,30.571 36.717,30.571 20.616,0 37.328,-16.712 37.328,-37.328 0,-16.496 -10.699,-30.49 -25.536,-35.426 2.077,-3.78 3.26,-8.123 3.26,-12.74 0,-14.632 -11.86,-26.492 -26.492,-26.492 -13.419,0 -24.506,9.979 -26.25,22.921 -3.781,-1.578 -7.929,-2.451 -12.282,-2.451 -3.363,0 -6.605,0.523 -9.649,1.487 -0.487,-16.532 -14.04,-29.784 -30.69,-29.784 -7.398,0 -14.185,2.617 -19.485,6.974 M 350.3,-20.634 v -73.728 c -3.846,-1.277 -7.96,-1.97 -12.235,-1.97 -21.446,0 -38.835,17.386 -38.835,38.833 0,2.202 0.187,4.359 0.54,6.461 -3.354,-1.256 -6.984,-1.945 -10.774,-1.945 -16.959,0 -30.705,13.747 -30.705,30.706 0,16.958 13.746,30.706 30.705,30.706 16.959,0 30.706,-13.748 30.706,-30.706 0,-0.337 -0.008,-0.672 -0.018,-1.007 5.472,2.946 11.73,4.619 18.381,4.619 4.275,0 8.389,-0.693 12.235,-1.969"
             style="fill:#9ac421;fill-opacity:1;fill-rule:evenodd;stroke:none"
             id="path4263" />
        </g>
        <path
           d="m 0,49.879 h 68.563 v 8.43 H 0 Z"
           style="fill:#caccbc;fill-opacity:1;fill-rule:evenodd;stroke:none"
           id="path4265" />
        <path
           d="m 129.145,58.309 h 68.563 v -8.43 h -68.563 z"
           style="fill:#caccbc;fill-opacity:1;fill-rule:evenodd;stroke:none"
           id="path4267" />
        <path
           d="m 258.29,58.309 h 68.565 v -8.43 H 258.29 Z"
           style="fill:#caccbc;fill-opacity:1;fill-rule:evenodd;stroke:none"
           id="path4269" />
        <path
           d="m 387.435,58.309 h 68.563 v -8.43 h -68.563 z"
           style="fill:#caccbc;fill-opacity:1;fill-rule:evenodd;stroke:none"
           id="path4271" />
        <path
           d="m 516.58,49.879 h 68.563 v 8.43 H 516.58 Z"
           style="fill:#caccbc;fill-opacity:1;fill-rule:evenodd;stroke:none"
           id="path4273" />
        <g
           id="g4275"
           transform="translate(114.6216,101.2061)">
          <path
             d="m 0,0 h 168.182 l 8.479,8.479 v 17.412 l -6.888,3.974 -39.574,8.58 -28.569,16.224 H 31.91 L -1.494,35.384 -6.002,18.557 Z"
             style="fill:#cc2d23;fill-opacity:1;fill-rule:evenodd;stroke:none"
             id="path4277" />
        </g>
        <g
           id="g4279"
           transform="translate(287.8389,129.084)">
          <path
             d="m 0,0 -3.444,1.987 -39.575,8.58 -28.568,16.224 h -69.721 L -174.711,7.506 -176.723,0 Z"
             style="fill:#ea3221;fill-opacity:1;fill-rule:evenodd;stroke:none"
             id="path4281" />
        </g>
        <g
           id="g4283"
           transform="translate(124.1475,101.2061)">
          <path
             d="m 0,0 h 32.605 c 0.331,1.317 0.508,2.693 0.508,4.112 0,9.285 -7.527,16.812 -16.811,16.812 C 7.019,20.924 -0.507,13.397 -0.507,4.112 -0.507,2.693 -0.331,1.317 0,0"
             style="fill:#8c211d;fill-opacity:1;fill-rule:evenodd;stroke:none"
             id="path4285" />
        </g>
        <g
           id="g4287"
           transform="translate(140.4497,91.3711)">
          <path
             d="M 0,0 C 7.683,0 13.948,6.267 13.948,13.947 13.948,21.63 7.683,27.895 0,27.895 -7.681,27.895 -13.947,21.63 -13.947,13.947 -13.947,6.267 -7.681,0 0,0"
             style="fill:#1c1a19;fill-opacity:1;fill-rule:evenodd;stroke:none"
             id="path4289" />
        </g>
        <g
           id="g4291"
           transform="translate(140.4497,96.042)">
          <path
             d="m 0,0 c 5.11,0 9.278,4.169 9.278,9.276 0,5.112 -4.168,9.278 -9.278,9.278 -5.109,0 -9.278,-4.166 -9.278,-9.278 C -9.278,4.169 -5.109,0 0,0"
             style="fill:#949595;fill-opacity:1;fill-rule:evenodd;stroke:none"
             id="path4293" />
        </g>
        <g
           id="g4295"
           transform="translate(140.4497,101.2061)">
          <path
             d="M 0,0 C 2.266,0 4.114,1.849 4.114,4.112 4.114,6.378 2.266,8.227 0,8.227 -2.265,8.227 -4.113,6.378 -4.113,4.112 -4.113,1.849 -2.265,0 0,0"
             style="fill:#cdcccb;fill-opacity:1;fill-rule:evenodd;stroke:none"
             id="path4297" />
        </g>
        <g
           id="g4299"
           transform="translate(234.2222,101.2061)">
          <path
             d="m 0,0 h 32.605 c 0.333,1.317 0.509,2.693 0.509,4.112 0,9.285 -7.526,16.812 -16.812,16.812 -9.283,0 -16.81,-7.527 -16.81,-16.812 C -0.508,2.693 -0.331,1.317 0,0"
             style="fill:#8c211d;fill-opacity:1;fill-rule:evenodd;stroke:none"
             id="path4301" />
        </g>
        <g
           id="g4303"
           transform="translate(250.5244,91.3711)">
          <path
             d="M 0,0 C 7.683,0 13.947,6.267 13.947,13.947 13.947,21.63 7.683,27.895 0,27.895 -7.681,27.895 -13.946,21.63 -13.946,13.947 -13.946,6.267 -7.681,0 0,0"
             style="fill:#1c1a19;fill-opacity:1;fill-rule:evenodd;stroke:none"
             id="path4305" />
        </g>
        <g
           id="g4307"
           transform="translate(250.5244,96.042)">
          <path
             d="m 0,0 c 5.111,0 9.278,4.169 9.278,9.276 0,5.112 -4.167,9.278 -9.278,9.278 -5.109,0 -9.277,-4.166 -9.277,-9.278 C -9.277,4.169 -5.109,0 0,0"
             style="fill:#949595;fill-opacity:1;fill-rule:evenodd;stroke:none"
             id="path4309" />
        </g>
        <g
           id="g4311"
           transform="translate(250.5244,101.2061)">
          <path
             d="M 0,0 C 2.266,0 4.114,1.849 4.114,4.112 4.114,6.378 2.266,8.227 0,8.227 -2.266,8.227 -4.112,6.378 -4.112,4.112 -4.112,1.849 -2.266,0 0,0"
             style="fill:#cdcccb;fill-opacity:1;fill-rule:evenodd;stroke:none"
             id="path4313" />
        </g>
        <path
           d="m 277.183,120.252 h 14.1 v 5.488 h -14.1 z"
           style="fill:#f9de1c;fill-opacity:1;fill-rule:evenodd;stroke:none"
           id="path4315" />
        <path
           d="m 106.871,118.214 h 10.763 v 7.001 h -10.763 z"
           style="fill:#2f2d2d;fill-opacity:1;fill-rule:evenodd;stroke:none"
           id="path4317" />
        <path
           d="m 107.662,119.364 h 7.225 v 4.698 h -7.225 z"
           style="fill:#cc2d23;fill-opacity:1;fill-rule:evenodd;stroke:none"
           id="path4319" />
        <g
           id="g4321"
           transform="translate(225.9653,139.6514)">
          <path
             d="M 0,0 -13.836,13.143 H -37.919 L -34.362,0 Z m -40.747,0 h -37.248 l 3.558,13.143 h 30.13 z m -43.633,0 3.557,13.143 h -5.002 L -108.82,0 Z M 20.06,0 H 3.604 L -10.23,13.143 h 6.914 z"
             style="fill:#5d728d;fill-opacity:1;fill-rule:evenodd;stroke:none"
             id="path4323" />
        </g>
        <g
           id="g4325"
           transform="translate(509.6191,25.29)">
          <path
             d="m 0,0 h -178.165 l -8.982,8.982 v 18.445 l 7.295,4.21 41.923,9.09 30.265,17.188 h 73.859 L 1.581,37.485 6.359,19.658 Z"
             style="fill:#3983ab;fill-opacity:1;fill-rule:evenodd;stroke:none"
             id="path4327" />
        </g>
        <g
           id="g4329"
           transform="translate(326.1172,54.8213)">
          <path
             d="m 0,0 3.649,2.105 41.924,9.09 30.265,17.189 h 73.859 L 185.083,7.954 187.216,0 Z"
             style="fill:#4ba5ce;fill-opacity:1;fill-rule:evenodd;stroke:none"
             id="path4331" />
        </g>
        <g
           id="g4333"
           transform="translate(499.5273,25.29)">
          <path
             d="m 0,0 h -34.541 c -0.351,1.394 -0.537,2.854 -0.537,4.357 0,9.836 7.973,17.807 17.807,17.807 9.837,0 17.81,-7.971 17.81,-17.807 C 0.539,2.854 0.351,1.394 0,0"
             style="fill:#285e7f;fill-opacity:1;fill-rule:evenodd;stroke:none"
             id="path4335" />
        </g>
        <g
           id="g4337"
           transform="translate(482.2568,14.8711)">
          <path
             d="m 0,0 c 8.138,0 14.775,6.639 14.775,14.776 0,8.137 -6.637,14.776 -14.775,14.776 -8.138,0 -14.775,-6.639 -14.775,-14.776 C -14.775,6.639 -8.138,0 0,0"
             style="fill:#1c1a19;fill-opacity:1;fill-rule:evenodd;stroke:none"
             id="path4339" />
        </g>
        <g
           id="g4341"
           transform="translate(482.2568,19.8184)">
          <path
             d="m 0,0 c 5.413,0 9.829,4.415 9.829,9.829 0,5.413 -4.416,9.828 -9.829,9.828 -5.413,0 -9.829,-4.415 -9.829,-9.828 C -9.829,4.415 -5.413,0 0,0"
             style="fill:#949595;fill-opacity:1;fill-rule:evenodd;stroke:none"
             id="path4343" />
        </g>
        <g
           id="g4345"
           transform="translate(482.2568,25.29)">
          <path
             d="M 0,0 C 2.4,0 4.358,1.958 4.358,4.357 4.358,6.758 2.4,8.716 0,8.716 -2.399,8.716 -4.356,6.758 -4.356,4.357 -4.356,1.958 -2.399,0 0,0"
             style="fill:#cdcccb;fill-opacity:1;fill-rule:evenodd;stroke:none"
             id="path4347" />
        </g>
        <g
           id="g4349"
           transform="translate(382.918,25.29)">
          <path
             d="m 0,0 h -34.541 c -0.353,1.394 -0.536,2.854 -0.536,4.357 0,9.836 7.972,17.807 17.806,17.807 9.835,0 17.808,-7.971 17.808,-17.807 C 0.537,2.854 0.351,1.394 0,0"
             style="fill:#285e7f;fill-opacity:1;fill-rule:evenodd;stroke:none"
             id="path4351" />
        </g>
        <g
           id="g4353"
           transform="translate(365.6475,14.8711)">
          <path
             d="m 0,0 c 8.138,0 14.776,6.639 14.776,14.776 0,8.137 -6.638,14.776 -14.776,14.776 -8.137,0 -14.775,-6.639 -14.775,-14.776 C -14.775,6.639 -8.137,0 0,0"
             style="fill:#1c1a19;fill-opacity:1;fill-rule:evenodd;stroke:none"
             id="path4355" />
        </g>
        <g
           id="g4357"
           transform="translate(365.6475,19.8184)">
          <path
             d="m 0,0 c 5.414,0 9.829,4.415 9.829,9.829 0,5.413 -4.415,9.828 -9.829,9.828 -5.413,0 -9.828,-4.415 -9.828,-9.828 C -9.828,4.415 -5.413,0 0,0"
             style="fill:#949595;fill-opacity:1;fill-rule:evenodd;stroke:none"
             id="path4359" />
        </g>
        <g
           id="g4361"
           transform="translate(365.6475,25.29)">
          <path
             d="M 0,0 C 2.401,0 4.359,1.958 4.359,4.357 4.359,6.758 2.401,8.716 0,8.716 -2.398,8.716 -4.357,6.758 -4.357,4.357 -4.357,1.958 -2.398,0 0,0"
             style="fill:#cdcccb;fill-opacity:1;fill-rule:evenodd;stroke:none"
             id="path4363" />
        </g>
        <path
           d="m 322.472,45.465 h 14.935 v 5.816 h -14.935 z"
           style="fill:#f9de1c;fill-opacity:1;fill-rule:evenodd;stroke:none"
           id="path4365" />
        <path
           d="m 506.428,43.308 h 11.402 v 7.414 h -11.402 z"
           style="fill:#2f2d2d;fill-opacity:1;fill-rule:evenodd;stroke:none"
           id="path4367" />
        <path
           d="m 509.339,44.524 h 7.653 v 4.979 h -7.653 z"
           style="fill:#cc2d23;fill-opacity:1;fill-rule:evenodd;stroke:none"
           id="path4369" />
        <g
           id="g4371"
           transform="translate(391.667,66.0166)">
          <path
             d="M 0,0 14.656,13.925 H 40.168 L 36.399,0 Z M 43.165,0 H 82.623 L 78.854,13.925 H 46.935 Z m 46.222,0 -3.768,13.925 h 5.3 L 115.278,0 Z M -21.253,0 H -3.821 L 10.837,13.925 H 3.513 Z"
             style="fill:#5d728d;fill-opacity:1;fill-rule:evenodd;stroke:none"
             id="path4373" />
        </g>
      </g>
    </g>
  </g>
</svg>
